<?xml version="1.0" encoding="UTF-8" standalone="no"?><!DOCTYPE svg PUBLIC "-//W3C//DTD SVG 1.1//EN" "http://www.w3.org/Graphics/SVG/1.1/DTD/svg11.dtd"><svg width="100%" height="100%" viewBox="0 0 301442 93246" version="1.1" xmlns="http://www.w3.org/2000/svg" xmlns:xlink="http://www.w3.org/1999/xlink" xml:space="preserve" xmlns:serif="http://www.serif.com/" style="fill-rule:evenodd;clip-rule:evenodd;stroke-linejoin:round;stroke-miterlimit:2;"><g id="Logo"><g><path d="M62571.7,10517.1l-11298.8,56646.7l-7023.58,0l992.525,-4962.38c-1832.23,1730.49 -3957.18,3066.49 -6374.67,4008.04c-2417.49,941.542 -5051.46,1412.32 -7901.5,1412.32c-3460.98,0 -6540.17,-699.758 -9237.63,-2099.42c-2697.46,-1399.66 -4809.54,-3422.68 -6336.46,-6069.29c-1526.83,-2646.6 -2290.35,-5751.21 -2290.35,-9313.92c0,-4580.54 992.529,-8677.67 2977.45,-12291.2c1984.93,-3613.58 4720.58,-6438.33 8206.92,-8474.13c3486.31,-2035.88 7392.63,-3053.74 11718.8,-3053.74c3460.88,0 6450.96,623.496 8970.29,1870.44c2519.33,1246.94 4415.21,3066.39 5687.58,5458.46l4580.54,-23132l7329,0l0,-0.05l-0.046,0.212Zm-30002.9,50692.1c3002.86,0 5713.08,-725.309 8130.58,-2175.83c2417.62,-1450.5 4300.71,-3473.63 5649.5,-6069.25c1348.68,-2595.74 2023.01,-5547.63 2023.01,-8855.79c0,-3613.7 -1043.38,-6412.88 -3130.03,-8397.79c-2086.77,-1984.93 -5064.08,-2977.45 -8932.21,-2977.45c-3002.76,0 -5700.25,725.312 -8092.42,2175.83c-2392.04,1450.52 -4275.13,3473.65 -5649.38,6069.29c-1374.21,2595.75 -2061.32,5547.63 -2061.32,8855.79c0,3562.72 1056.14,6349.25 3168.33,8359.58c2112.1,2010.36 5076.75,3015.63 8893.92,3015.63l0,-0.016Z" style="fill:#04243d;fill-rule:nonzero;"/><path d="M111355,26702.1l-8016,40461.9l-7023.58,-0.025l992.404,-4962.33c-1832.23,1730.49 -3957.08,3066.52 -6374.67,4008.06c-2417.5,941.542 -5051.33,1412.31 -7901.5,1412.31c-3460.88,0 -6540.04,-699.78 -9237.5,-2099.42c-2697.46,-1399.66 -4809.67,-3422.67 -6336.58,-6069.29c-1526.81,-2646.6 -2290.22,-5751.21 -2290.22,-9313.92c0,-4580.54 992.4,-8677.67 2977.33,-12291.3c1984.93,-3613.58 4720.58,-6438.29 8206.92,-8474.08c3486.4,-2035.89 7392.63,-3053.74 11718.8,-3053.74c3460.88,0 6425.54,610.716 8894,1832.23c2468.35,1221.51 4364.21,3028.31 5687.58,5420.33l1374.11,-6870.88l7329,0l0,0.075l-0.038,0.008Zm-26720.1,34507.2c3002.78,0 5713.04,-725.309 8130.5,-2175.83c2417.6,-1450.52 4300.67,-3473.63 5649.46,-6069.29c1348.68,-2595.72 2023.13,-5547.63 2023.13,-8855.79c0,-3613.68 -1043.38,-6412.88 -3130.15,-8397.79c-2086.67,-1984.9 -5064.08,-2977.43 -8932.13,-2977.43c-3002.86,0 -5700.33,725.309 -8092.38,2175.83c-2392.17,1450.53 -4275.25,3473.63 -5649.5,6069.29c-1374.11,2595.72 -2061.22,5547.63 -2061.22,8855.79c0,3562.72 1056.06,6349.25 3168.23,8359.63c2112.2,2010.35 5076.88,3015.63 8894,3015.63l0.042,-0.033Z" style="fill:#04243d;fill-rule:nonzero;"/><path d="M128152,54261.3c-152.7,763.417 -229.109,1475.95 -229.109,2137.63c0,1628.67 445.342,2875.61 1336.01,3740.85c890.683,865.158 2226.71,1297.82 4008.06,1297.82c2137.63,0 4071.67,-636.246 5802.08,-1908.62l1526.93,5573.04c-2443.05,1679.63 -5573.08,2519.33 -9390.33,2519.33c-3206.32,0 -5789.29,-903.337 -7748.79,-2710.12c-1959.5,-1806.8 -2939.22,-4288.04 -2939.22,-7443.5c0,-1068.81 101.816,-2086.74 305.395,-3053.74l4351.54,-21681.5l-6870.88,0l1145.1,-6031.08l6947.29,0l1755.94,-8855.79l7328.88,0l-1755.92,8855.79l11604.3,0l-1221.51,6031.08l-11604.2,0l-4351.54,21528.9l-0.004,-0.029Z" style="fill:#04243d;fill-rule:nonzero;"/><path d="M193654,26702.1l-8016,40461.9l-7023.58,-0.025l992.404,-4962.33c-1832.23,1730.49 -3957.08,3066.52 -6374.67,4008.06c-2417.49,941.542 -5051.33,1412.31 -7901.5,1412.31c-3460.88,0 -6540.04,-699.78 -9237.5,-2099.42c-2697.46,-1399.66 -4809.67,-3422.67 -6336.46,-6069.29c-1526.93,-2646.6 -2290.33,-5751.21 -2290.33,-9313.92c0,-4580.54 992.404,-8677.67 2977.33,-12291.3c1984.93,-3613.58 4720.58,-6438.29 8206.92,-8474.08c3486.41,-2035.89 7392.63,-3053.74 11718.8,-3053.74c3460.88,0 6425.54,610.716 8894,1832.23c2468.47,1221.51 4364.33,3028.31 5687.58,5420.33l1374.21,-6870.88l7328.88,0l0,0.075l-0.033,0.008Zm-26720.1,34507.2c3002.88,0 5713.04,-725.309 8130.63,-2175.83c2417.5,-1450.52 4300.67,-3473.63 5649.38,-6069.29c1348.78,-2595.72 2023.13,-5547.63 2023.13,-8855.79c-0.025,-3613.68 -1043.38,-6412.88 -3130.15,-8397.79c-2086.65,-1984.9 -5064.08,-2977.43 -8932.13,-2977.43c-3002.86,0 -5700.33,725.309 -8092.38,2175.83c-2392.07,1450.53 -4275.25,3473.63 -5649.46,6069.29c-1374.14,2595.72 -2061.24,5547.63 -2061.24,8855.79c0,3562.72 1056.06,6349.25 3168.23,8359.63c2112.2,2010.35 5076.88,3015.63 8894,3015.63l-0.016,-0.033Z" style="fill:#04243d;fill-rule:nonzero;"/><path d="M212359,67621.7c-3359.04,0 -6552.83,-432.567 -9581,-1297.8c-3028.31,-865.258 -5382.29,-1984.93 -7061.79,-3359.16l3282.72,-5802.08c1577.79,1272.4 3626.35,2277.57 6145.67,3015.54c2519.34,737.988 5153.17,1107.02 7901.5,1107.02c3460.88,0 6094.79,-521.629 7901.58,-1565.01c1806.78,-1043.39 2710.14,-2506.66 2710.14,-4389.75c0,-1526.93 -725.213,-2621.18 -2175.73,-3282.76c-1450.62,-661.675 -3702.74,-1323.35 -6756.5,-1984.92c-2850.06,-610.817 -5178.58,-1234.29 -6985.38,-1870.41c-1806.78,-636.246 -3346.36,-1654.1 -4618.75,-3053.74c-1272.37,-1399.66 -1908.62,-3295.5 -1908.62,-5687.58c0,-2646.6 750.742,-4962.38 2252.12,-6947.29c1501.48,-1984.92 3639.1,-3511.73 6412.88,-4580.54c2773.78,-1068.82 5992.96,-1603.22 9657.42,-1603.22c2697.46,0 5318.63,330.825 7863.42,992.4c2544.76,661.675 4631.5,1552.36 6260.17,2672.03l-2901.02,5802.08c-1577.79,-1068.81 -3410.02,-1870.41 -5496.75,-2404.82c-2086.77,-534.308 -4224.29,-801.525 -6412.88,-801.525c-3308.18,0 -5852.96,547.083 -7634.29,1641.33c-1781.37,1094.25 -2672.03,2557.54 -2672.03,4389.75c0,1628.67 737.963,2786.55 2213.91,3473.65c1476.05,687.108 3766.28,1361.46 6871,2023.14c2799.18,610.691 5089.54,1221.41 6870.88,1832.2c1781.35,610.716 3295.5,1603.22 4542.33,2977.33c1246.97,1374.23 1870.44,3231.89 1870.44,5573.08c0,4122.55 -1692.28,7341.79 -5076.79,9657.42c-3384.57,2315.75 -7876.17,3473.63 -13474.7,3473.63l0.021,0.017Z" style="fill:#4d70cc;fill-rule:nonzero;"/><path d="M248696,54261.3c-152.7,763.417 -228.987,1475.95 -228.987,2137.63c0,1628.67 445.316,2875.61 1336,3740.85c890.688,865.158 2226.69,1297.82 4008.06,1297.82c2137.63,0 4071.57,-636.246 5802.08,-1908.62l1526.81,5573.04c-2442.93,1679.63 -5573.04,2519.33 -9390.21,2519.33c-3206.44,0 -5789.29,-903.337 -7748.79,-2710.12c-1959.5,-1806.8 -2939.25,-4288.04 -2939.25,-7443.5c0,-1068.81 101.742,-2086.74 305.296,-3053.74l4351.67,-21681.5l-6870.96,0l1145.2,-6031.08l6947.17,0l1755.92,-8855.79l7329,0l-1755.92,8855.79l11604.3,0l-1221.51,6031.08l-11604.3,0l-4351.58,21528.9l-0.005,-0.029Z" style="fill:#4d70cc;fill-rule:nonzero;"/></g><path d="M283853,55613.5l-3731.89,-24256.5l-6811.74,39735.2c2133,1382.64 3545.45,3784.14 3545.45,6513.16c0,4282.13 -3476.64,7758.65 -7758.76,7758.65c-3331.43,0 -6175.37,-2104.36 -7273.27,-5054.64l-240906,0c-1097.85,2950.28 -3941.82,5054.64 -7273.22,5054.64c-4282.13,0 -7758.65,-3476.51 -7758.65,-7758.65c0.032,-4282.13 3476.54,-7758.76 7758.65,-7758.76c3330.48,0 6172.98,2103.85 7270.88,5054.67l243127,-0.032c1493.46,0.032 2704,1210.66 2704,2704.13c0,1297.32 1053.36,2350.67 2350.67,2350.67c1297.44,0 2350.67,-1053.35 2350.67,-2350.67c0,-1105.61 -764.129,-2034.66 -1793.35,-2284.63c-1381.44,-335.463 -2267.17,-1683.44 -2027.03,-3084.46l8487.73,-49511.3c-2363.02,-1329.74 -3960.6,-3861.34 -3960.6,-6763.72c0,-4282.14 3476.51,-7758.65 7758.65,-7758.65c4282.13,0 7758.65,3476.5 7758.65,7758.65c0,2689.79 -1372.02,5061.47 -3453.79,6453.07l4998.71,32491.6c3445.41,787.76 6019.12,3874.07 6019.12,7556.71l0,14.435c0,4282.13 -3476.63,7758.65 -7758.76,7758.65c-4282.13,0 -7758.65,-3476.51 -7758.65,-7758.65c0,-167.508 5.387,-333.853 15.88,-499.029c7.092,-110.034 20.608,-218.209 40.303,-324.178c272.187,-2622.04 1854.13,-4857.7 4079.42,-6040.53l0.096,0.122l0.053,0.016Z" style="fill:#4d70cc;"/></g></svg>