<?xml version="1.0" encoding="iso-8859-1"?>
<!-- Generator: Adobe Illustrator 24.2.1, SVG Export Plug-In . SVG Version: 6.00 Build 0)  -->
<svg version="1.1" id="Capa_1" xmlns="http://www.w3.org/2000/svg" xmlns:xlink="http://www.w3.org/1999/xlink" x="0px" y="0px"
	 viewBox="0 0 497 497" style="enable-background:new 0 0 497 497;" xml:space="preserve">
<g>
	<path style="fill:#95B0ED;" d="M489.136,497h-22.5l-60-248.5l60-248.5h22.5c4.142,0,7.5,3.358,7.5,7.5v482
		C496.636,493.642,493.278,497,489.136,497z"/>
	<polygon style="fill:#7D8FE5;" points="466.636,497 436.636,497 376.636,248.5 436.636,0 466.636,0 	"/>
	<path style="fill:#95B0ED;" d="M436.636,497h-339.5c-4.142,0-7.5-3.358-7.5-7.5V392h347V497z"/>
	<path style="fill:#ACD2F6;" d="M316.636,262l-227,130H7.887c-4.685,0-8.297,4.263-7.38,8.857C4.621,421.468,22.815,437,44.636,437
		h317L316.636,262z"/>
	<path style="fill:#95B0ED;" d="M316.636,262v130c0,24.853,20.147,45,45,45h30V262H316.636z"/>
	<path style="fill:#ACD2F6;" d="M406.636,0l-30,434.429c4.693,1.659,9.739,2.571,15,2.571c24.853,0,45-20.147,45-45V0H406.636z"/>
	<path style="fill:#C4F3FF;" d="M89.636,7.5V392h257c0,19.592,12.524,36.25,30,42.429c17.476-6.179,30-22.837,30-42.429V0h-309.5
		C92.994,0,89.636,3.358,89.636,7.5z"/>
	<polygon style="fill:#FFD06A;" points="149.636,231 149.636,301 209.636,301 239.636,231 	"/>
	<polygon style="fill:#FF7647;" points="209.636,161 209.636,301 269.636,301 299.636,161 	"/>
	<rect x="269.636" y="91" style="fill:#FF336D;" width="60" height="210"/>
	<path style="fill:#4E4CD3;" d="M376.636,168.5c4.143,0,7.5-3.358,7.5-7.5s-3.357-7.5-7.5-7.5h-9.5v-55h9.5
		c4.143,0,7.5-3.358,7.5-7.5s-3.357-7.5-7.5-7.5h-17c-4.143,0-7.5,3.358-7.5,7.5v210c0,4.142,3.357,7.5,7.5,7.5h17
		c4.143,0,7.5-3.358,7.5-7.5s-3.357-7.5-7.5-7.5h-9.5v-55h9.5c4.143,0,7.5-3.358,7.5-7.5s-3.357-7.5-7.5-7.5h-9.5v-55H376.636z"/>
</g>
<g>
</g>
<g>
</g>
<g>
</g>
<g>
</g>
<g>
</g>
<g>
</g>
<g>
</g>
<g>
</g>
<g>
</g>
<g>
</g>
<g>
</g>
<g>
</g>
<g>
</g>
<g>
</g>
<g>
</g>
</svg>
