<?xml version="1.0" encoding="iso-8859-1"?>
<!-- Generator: Adobe Illustrator 24.2.1, SVG Export Plug-In . SVG Version: 6.00 Build 0)  -->
<svg version="1.1" id="Capa_1" xmlns="http://www.w3.org/2000/svg" xmlns:xlink="http://www.w3.org/1999/xlink" x="0px" y="0px"
	 viewBox="0 0 497 497" style="enable-background:new 0 0 497 497;" xml:space="preserve">
<g>
	<path style="fill:#666DDC;" d="M77.5,248.5c0-94.441,76.559-171,171-171v-30c-111.009,0-201,89.991-201,201s89.991,201,201,201v-30
		C154.059,419.5,77.5,342.941,77.5,248.5z"/>
	<path style="fill:#4E4CD3;" d="M248.5,47.5v30c94.441,0,171,76.559,171,171s-76.559,171-171,171v30c111.009,0,201-89.991,201-201
		S359.509,47.5,248.5,47.5z"/>
	<path style="fill:#C4F3FF;" d="M248.5,0C202.937,0,166,36.937,166,82.5c0,22.407,8.946,42.715,23.445,57.582l118.468-0.374
		C322.199,124.874,331,104.721,331,82.5C331,36.937,294.064,0,248.5,0z"/>
	<path style="fill:#22AEF4;" d="M279.742,120h-30l30,38.865c10.699-4.388,20.274-10.958,28.17-19.157
		C303.689,128.238,292.631,120,279.742,120z"/>
	<path style="fill:#14CFFF;" d="M249.742,120h-32c-13.028,0-24.179,8.419-28.298,20.082C204.428,155.447,225.343,165,248.5,165
		c11.06,0,21.607-2.183,31.242-6.135V150C279.742,133.5,266.242,120,249.742,120z"/>
	<path style="fill:#FF7647;" d="M248.5,30l-15,30l15,30c16.569,0,30-13.431,30-30S265.069,30,248.5,30z"/>
	<path style="fill:#FF9C6C;" d="M218.5,60c0,16.569,13.431,30,30,30V30C231.931,30,218.5,43.431,218.5,60z"/>
	<path style="fill:#C4F3FF;" d="M82.5,166C36.937,166,0,202.937,0,248.5c0,22.407,8.946,42.715,23.445,57.582l118.468-0.374
		C156.199,290.874,165,270.721,165,248.5C165,202.937,128.064,166,82.5,166z"/>
	<path style="fill:#22AEF4;" d="M113.742,286h-30l30,38.865c10.699-4.388,20.274-10.958,28.17-19.157
		C137.689,294.238,126.631,286,113.742,286z"/>
	<path style="fill:#14CFFF;" d="M83.742,286h-32c-13.028,0-24.179,8.419-28.298,20.082C38.428,321.447,59.343,331,82.5,331
		c11.06,0,21.607-2.183,31.242-6.135V316C113.742,299.5,100.242,286,83.742,286z"/>
	<path style="fill:#FF7647;" d="M82.5,196l-15,30l15,30c16.569,0,30-13.431,30-30S99.069,196,82.5,196z"/>
	<path style="fill:#FF9C6C;" d="M52.5,226c0,16.569,13.431,30,30,30v-60C65.931,196,52.5,209.431,52.5,226z"/>
	<path style="fill:#C4F3FF;" d="M248.5,332c-45.563,0-82.5,36.937-82.5,82.5c0,22.407,8.946,42.715,23.445,57.582l118.468-0.374
		C322.199,456.874,331,436.721,331,414.5C331,368.937,294.064,332,248.5,332z"/>
	<path style="fill:#22AEF4;" d="M279.742,452h-30l30,38.865c10.699-4.388,20.274-10.958,28.17-19.157
		C303.689,460.238,292.631,452,279.742,452z"/>
	<path style="fill:#14CFFF;" d="M249.742,452h-32c-13.028,0-24.179,8.419-28.298,20.082C204.428,487.447,225.343,497,248.5,497
		c11.06,0,21.607-2.183,31.242-6.135V482C279.742,465.5,266.242,452,249.742,452z"/>
	<path style="fill:#FF7647;" d="M248.5,362l-15,30l15,30c16.569,0,30-13.431,30-30S265.069,362,248.5,362z"/>
	<path style="fill:#FF9C6C;" d="M218.5,392c0,16.569,13.431,30,30,30v-60C231.931,362,218.5,375.431,218.5,392z"/>
	<path style="fill:#C4F3FF;" d="M414.5,166c-45.563,0-82.5,36.937-82.5,82.5c0,22.407,8.946,42.715,23.445,57.582l118.468-0.374
		C488.199,290.874,497,270.721,497,248.5C497,202.937,460.064,166,414.5,166z"/>
	<path style="fill:#22AEF4;" d="M445.742,286h-30l30,38.865c10.699-4.388,20.274-10.958,28.17-19.157
		C469.689,294.238,458.631,286,445.742,286z"/>
	<path style="fill:#14CFFF;" d="M415.742,286h-32c-13.028,0-24.179,8.419-28.298,20.082C370.428,321.447,391.343,331,414.5,331
		c11.06,0,21.607-2.183,31.242-6.135V316C445.742,299.5,432.242,286,415.742,286z"/>
	<path style="fill:#FF7647;" d="M414.5,196l-15,30l15,30c16.569,0,30-13.431,30-30S431.069,196,414.5,196z"/>
	<path style="fill:#FF9C6C;" d="M384.5,226c0,16.569,13.431,30,30,30v-60C397.931,196,384.5,209.431,384.5,226z"/>
</g>
<g>
</g>
<g>
</g>
<g>
</g>
<g>
</g>
<g>
</g>
<g>
</g>
<g>
</g>
<g>
</g>
<g>
</g>
<g>
</g>
<g>
</g>
<g>
</g>
<g>
</g>
<g>
</g>
<g>
</g>
</svg>
