<?xml version="1.0" encoding="iso-8859-1"?>
<!-- Generator: Adobe Illustrator 24.2.1, SVG Export Plug-In . SVG Version: 6.00 Build 0)  -->
<svg version="1.1" id="Capa_1" xmlns="http://www.w3.org/2000/svg" xmlns:xlink="http://www.w3.org/1999/xlink" x="0px" y="0px"
	 viewBox="0 0 497 497" style="enable-background:new 0 0 497 497;" xml:space="preserve">
<g>
	<circle style="fill:#95B0ED;" cx="248.5" cy="248.5" r="248.5"/>
	<path style="fill:#C4F3FF;" d="M248.5,30v437C369.174,467,467,369.174,467,248.5S369.174,30,248.5,30z"/>
	<path style="fill:#FFFFFF;" d="M437,248.5C437,127.826,352.606,30,248.5,30C127.826,30,30,127.826,30,248.5S127.826,467,248.5,467
		C352.606,467,437,369.174,437,248.5z"/>
	<circle style="fill:#3F6DDE;" cx="411.746" cy="154.25" r="7.5"/>
	<circle style="fill:#3F6DDE;" cx="342.75" cy="85.254" r="7.5"/>
	<circle style="fill:#3F6DDE;" cx="248.5" cy="60" r="7.5"/>
	<circle style="fill:#3F6DDE;" cx="154.25" cy="85.254" r="7.5"/>
	<circle style="fill:#3F6DDE;" cx="85.254" cy="154.25" r="7.5"/>
	<circle style="fill:#3F6DDE;" cx="60" cy="248.5" r="7.5"/>
	<circle style="fill:#3F6DDE;" cx="85.254" cy="342.75" r="7.5"/>
	<circle style="fill:#3F6DDE;" cx="154.25" cy="411.746" r="7.5"/>
	<circle style="fill:#3F6DDE;" cx="248.5" cy="437" r="7.5"/>
	<circle style="fill:#3F6DDE;" cx="342.75" cy="411.746" r="7.5"/>
	<circle style="fill:#3F6DDE;" cx="411.746" cy="342.75" r="7.5"/>
	<path style="fill:#452096;" d="M422,233.5h-30v30h30c8.28,0,15-6.72,15-15C437,240.22,430.28,233.5,422,233.5z"/>
	<path style="fill:#5C2BC8;" d="M392,233.5H259.48v30H392c8.28,0,15-6.72,15-15C407,240.22,400.28,233.5,392,233.5z"/>
	<path style="fill:#5C2BC8;" d="M263.5,105c0-8.284-6.716-15-15-15c-8.284,0-15,6.716-15,15v132.523l30,0L263.5,105z"/>
	<path style="fill:#FF545A;" d="M236.983,249.41L131.12,355.274c-2.929,2.929-2.929,7.678,0,10.606
		c2.929,2.929,7.678,2.929,10.606,0L247.59,260.016L236.983,249.41z"/>
	<circle style="fill:#95B0ED;" cx="248.5" cy="248.5" r="30"/>
	<circle style="fill:#3F6DDE;" cx="248.5" cy="248.5" r="7.5"/>
</g>
<g>
</g>
<g>
</g>
<g>
</g>
<g>
</g>
<g>
</g>
<g>
</g>
<g>
</g>
<g>
</g>
<g>
</g>
<g>
</g>
<g>
</g>
<g>
</g>
<g>
</g>
<g>
</g>
<g>
</g>
</svg>
