<?xml version="1.0" encoding="iso-8859-1"?>
<!-- Generator: Adobe Illustrator 24.2.1, SVG Export Plug-In . SVG Version: 6.00 Build 0)  -->
<svg version="1.1" id="Capa_1" xmlns="http://www.w3.org/2000/svg" xmlns:xlink="http://www.w3.org/1999/xlink" x="0px" y="0px"
	 viewBox="0 0 504.5 504.5" style="enable-background:new 0 0 504.5 504.5;" xml:space="preserve">
<g>
	<path style="fill:#FF9C6C;" d="M470.75,429.5c0,24.813-20.187,45-45,45h-347c-24.813,0-45-20.187-45-45
		c0-16.327,8.741-30.648,21.788-38.536L252.25,271.999l30-45l-30-45c-40.285,0-74.386,26.469-85.864,62.964
		c-5.251,16.697-15.682,31.29-29.366,42.203l-104.92,83.672C14.842,384.592,3.75,405.769,3.75,429.5c0,41.355,33.645,75,75,75h317
		c49.627,0,90-33.645,90-75H470.75z"/>
	<path style="fill:#FF7647;" d="M472.401,370.839L367.48,287.167c-13.684-10.913-24.115-25.507-29.366-42.203
		C326.636,208.469,292.535,182,252.25,182v89.999l196.712,118.965c13.047,7.888,21.788,22.209,21.788,38.536
		c0,41.355-33.645,75-75,75h30c41.355,0,75-33.645,75-75C500.75,405.769,489.658,384.592,472.401,370.839z"/>
	<path style="fill:#C4F3FF;" d="M252.25,279.499c-4.143,0-7.5-3.357-7.5-7.5V157.501c0-11.741,5.607-22.956,15.001-30.001
		l23.955-17.965C297.08,99.508,304.75,84.188,304.75,67.5c0-28.948-23.552-52.5-52.5-52.5s-52.5,23.552-52.5,52.5
		c0,4.143-3.357,7.5-7.5,7.5s-7.5-3.357-7.5-7.5c0-37.22,30.28-67.5,67.5-67.5s67.5,30.28,67.5,67.5
		c0,21.455-9.857,41.15-27.045,54.036L268.751,139.5c-5.636,4.228-9.001,10.956-9.001,18.001v114.498
		C259.75,276.142,256.393,279.499,252.25,279.499z"/>
</g>
<g>
</g>
<g>
</g>
<g>
</g>
<g>
</g>
<g>
</g>
<g>
</g>
<g>
</g>
<g>
</g>
<g>
</g>
<g>
</g>
<g>
</g>
<g>
</g>
<g>
</g>
<g>
</g>
<g>
</g>
</svg>
